<svg xmlns="http://www.w3.org/2000/svg" viewBox="0 0 16 16" width="16" height="16" shape-rendering="crispEdges">
  <!-- Baby Polar Bear Pixel Art - 16x16 grid -->
  <!-- Ear -->
  <rect x="10" y="0" width="1" height="1" fill="#BAE6FD"/>
  <rect x="11" y="0" width="1" height="1" fill="#BAE6FD"/>
  <!-- Head top -->
  <rect x="9" y="1" width="1" height="1" fill="#BAE6FD"/>
  <rect x="10" y="1" width="1" height="1" fill="#BAE6FD"/>
  <rect x="11" y="1" width="1" height="1" fill="#BAE6FD"/>
  <rect x="12" y="1" width="1" height="1" fill="#BAE6FD"/>
  <!-- Head -->
  <rect x="7" y="2" width="1" height="1" fill="#BAE6FD"/>
  <rect x="8" y="2" width="1" height="1" fill="#BAE6FD"/>
  <rect x="9" y="2" width="1" height="1" fill="#BAE6FD"/>
  <rect x="10" y="2" width="1" height="1" fill="#BAE6FD"/>
  <rect x="11" y="2" width="1" height="1" fill="#BAE6FD"/>
  <rect x="12" y="2" width="1" height="1" fill="#BAE6FD"/>
  <rect x="13" y="2" width="1" height="1" fill="#BAE6FD"/>
  <!-- Head with eye -->
  <rect x="6" y="3" width="1" height="1" fill="#BAE6FD"/>
  <rect x="7" y="3" width="1" height="1" fill="#BAE6FD"/>
  <rect x="8" y="3" width="1" height="1" fill="#BAE6FD"/>
  <rect x="9" y="3" width="1" height="1" fill="#BAE6FD"/>
  <rect x="10" y="3" width="1" height="1" fill="#BAE6FD"/>
  <rect x="11" y="3" width="1" height="1" fill="#0C4A6E"/>
  <rect x="12" y="3" width="1" height="1" fill="#BAE6FD"/>
  <rect x="13" y="3" width="1" height="1" fill="#BAE6FD"/>
  <!-- Snout with nose -->
  <rect x="6" y="4" width="1" height="1" fill="#BAE6FD"/>
  <rect x="7" y="4" width="1" height="1" fill="#BAE6FD"/>
  <rect x="8" y="4" width="1" height="1" fill="#BAE6FD"/>
  <rect x="9" y="4" width="1" height="1" fill="#BAE6FD"/>
  <rect x="10" y="4" width="1" height="1" fill="#BAE6FD"/>
  <rect x="11" y="4" width="1" height="1" fill="#BAE6FD"/>
  <rect x="12" y="4" width="1" height="1" fill="#BAE6FD"/>
  <rect x="13" y="4" width="1" height="1" fill="#0C4A6E"/>
  <!-- Neck -->
  <rect x="5" y="5" width="1" height="1" fill="#BAE6FD"/>
  <rect x="6" y="5" width="1" height="1" fill="#BAE6FD"/>
  <rect x="7" y="5" width="1" height="1" fill="#BAE6FD"/>
  <rect x="8" y="5" width="1" height="1" fill="#BAE6FD"/>
  <rect x="9" y="5" width="1" height="1" fill="#BAE6FD"/>
  <rect x="10" y="5" width="1" height="1" fill="#BAE6FD"/>
  <rect x="11" y="5" width="1" height="1" fill="#BAE6FD"/>
  <!-- Body top -->
  <rect x="4" y="6" width="1" height="1" fill="#BAE6FD"/>
  <rect x="5" y="6" width="1" height="1" fill="#BAE6FD"/>
  <rect x="6" y="6" width="1" height="1" fill="#BAE6FD"/>
  <rect x="7" y="6" width="1" height="1" fill="#BAE6FD"/>
  <rect x="8" y="6" width="1" height="1" fill="#BAE6FD"/>
  <rect x="9" y="6" width="1" height="1" fill="#BAE6FD"/>
  <rect x="10" y="6" width="1" height="1" fill="#BAE6FD"/>
  <!-- Body -->
  <rect x="3" y="7" width="1" height="1" fill="#BAE6FD"/>
  <rect x="4" y="7" width="1" height="1" fill="#BAE6FD"/>
  <rect x="5" y="7" width="1" height="1" fill="#BAE6FD"/>
  <rect x="6" y="7" width="1" height="1" fill="#BAE6FD"/>
  <rect x="7" y="7" width="1" height="1" fill="#BAE6FD"/>
  <rect x="8" y="7" width="1" height="1" fill="#BAE6FD"/>
  <rect x="9" y="7" width="1" height="1" fill="#BAE6FD"/>
  <rect x="10" y="7" width="1" height="1" fill="#BAE6FD"/>
  <rect x="11" y="7" width="1" height="1" fill="#BAE6FD"/>
  <rect x="2" y="8" width="1" height="1" fill="#BAE6FD"/>
  <rect x="3" y="8" width="1" height="1" fill="#BAE6FD"/>
  <rect x="4" y="8" width="1" height="1" fill="#BAE6FD"/>
  <rect x="5" y="8" width="1" height="1" fill="#BAE6FD"/>
  <rect x="6" y="8" width="1" height="1" fill="#BAE6FD"/>
  <rect x="7" y="8" width="1" height="1" fill="#BAE6FD"/>
  <rect x="8" y="8" width="1" height="1" fill="#BAE6FD"/>
  <rect x="9" y="8" width="1" height="1" fill="#BAE6FD"/>
  <rect x="10" y="8" width="1" height="1" fill="#BAE6FD"/>
  <rect x="11" y="8" width="1" height="1" fill="#BAE6FD"/>
  <rect x="1" y="9" width="1" height="1" fill="#BAE6FD"/>
  <rect x="2" y="9" width="1" height="1" fill="#BAE6FD"/>
  <rect x="3" y="9" width="1" height="1" fill="#BAE6FD"/>
  <rect x="4" y="9" width="1" height="1" fill="#BAE6FD"/>
  <rect x="5" y="9" width="1" height="1" fill="#BAE6FD"/>
  <rect x="6" y="9" width="1" height="1" fill="#BAE6FD"/>
  <rect x="7" y="9" width="1" height="1" fill="#BAE6FD"/>
  <rect x="8" y="9" width="1" height="1" fill="#BAE6FD"/>
  <rect x="9" y="9" width="1" height="1" fill="#BAE6FD"/>
  <rect x="10" y="9" width="1" height="1" fill="#BAE6FD"/>
  <!-- Lower body -->
  <rect x="0" y="10" width="1" height="1" fill="#BAE6FD"/>
  <rect x="1" y="10" width="1" height="1" fill="#BAE6FD"/>
  <rect x="2" y="10" width="1" height="1" fill="#BAE6FD"/>
  <rect x="3" y="10" width="1" height="1" fill="#BAE6FD"/>
  <rect x="4" y="10" width="1" height="1" fill="#BAE6FD"/>
  <rect x="5" y="10" width="1" height="1" fill="#BAE6FD"/>
  <rect x="6" y="10" width="1" height="1" fill="#BAE6FD"/>
  <rect x="7" y="10" width="1" height="1" fill="#BAE6FD"/>
  <rect x="8" y="10" width="1" height="1" fill="#BAE6FD"/>
  <rect x="9" y="10" width="1" height="1" fill="#BAE6FD"/>
  <rect x="0" y="11" width="1" height="1" fill="#BAE6FD"/>
  <rect x="1" y="11" width="1" height="1" fill="#BAE6FD"/>
  <rect x="2" y="11" width="1" height="1" fill="#BAE6FD"/>
  <rect x="3" y="11" width="1" height="1" fill="#BAE6FD"/>
  <rect x="4" y="11" width="1" height="1" fill="#BAE6FD"/>
  <rect x="5" y="11" width="1" height="1" fill="#BAE6FD"/>
  <rect x="6" y="11" width="1" height="1" fill="#BAE6FD"/>
  <rect x="7" y="11" width="1" height="1" fill="#BAE6FD"/>
  <rect x="8" y="11" width="1" height="1" fill="#BAE6FD"/>
  <!-- Tail + Legs -->
  <rect x="0" y="12" width="1" height="1" fill="#BAE6FD"/>
  <rect x="1" y="12" width="1" height="1" fill="#BAE6FD"/>
  <rect x="4" y="12" width="1" height="1" fill="#BAE6FD"/>
  <rect x="5" y="12" width="1" height="1" fill="#BAE6FD"/>
  <rect x="6" y="12" width="1" height="1" fill="#BAE6FD"/>
  <rect x="8" y="12" width="1" height="1" fill="#BAE6FD"/>
  <rect x="9" y="12" width="1" height="1" fill="#BAE6FD"/>
  <rect x="10" y="12" width="1" height="1" fill="#BAE6FD"/>
  <rect x="4" y="13" width="1" height="1" fill="#BAE6FD"/>
  <rect x="5" y="13" width="1" height="1" fill="#BAE6FD"/>
  <rect x="6" y="13" width="1" height="1" fill="#BAE6FD"/>
  <rect x="8" y="13" width="1" height="1" fill="#BAE6FD"/>
  <rect x="9" y="13" width="1" height="1" fill="#BAE6FD"/>
  <rect x="10" y="13" width="1" height="1" fill="#BAE6FD"/>
  <!-- Paws -->
  <rect x="3" y="14" width="1" height="1" fill="#BAE6FD"/>
  <rect x="4" y="14" width="1" height="1" fill="#BAE6FD"/>
  <rect x="5" y="14" width="1" height="1" fill="#BAE6FD"/>
  <rect x="6" y="14" width="1" height="1" fill="#BAE6FD"/>
  <rect x="7" y="14" width="1" height="1" fill="#BAE6FD"/>
  <rect x="8" y="14" width="1" height="1" fill="#BAE6FD"/>
  <rect x="9" y="14" width="1" height="1" fill="#BAE6FD"/>
  <rect x="10" y="14" width="1" height="1" fill="#BAE6FD"/>
  <rect x="11" y="14" width="1" height="1" fill="#BAE6FD"/>
</svg>
