<svg xmlns="http://www.w3.org/2000/svg" viewBox="0 0 20 22" width="20" height="22" shape-rendering="crispEdges">
  <!-- T-Rex Pixel Art - reference accurate, 20x22 grid -->
  <!-- DG=#3A7D2E (dark green body), LG=#8DC63F (light belly), BK=#111111 (eye), WH=#FFFFFF (teeth) -->

  <!-- HEAD - top right, large rectangular -->
  <!-- row 0 -->
  <rect x="11" y="0" width="4" height="1" fill="#3A7D2E"/>
  <!-- row 1 -->
  <rect x="10" y="1" width="6" height="1" fill="#3A7D2E"/>
  <!-- row 2 - eye -->
  <rect x="10" y="2" width="2" height="1" fill="#3A7D2E"/>
  <rect x="12" y="2" width="2" height="1" fill="#111111"/>
  <rect x="14" y="2" width="2" height="1" fill="#3A7D2E"/>
  <!-- row 3 -->
  <rect x="10" y="3" width="6" height="1" fill="#3A7D2E"/>
  <!-- row 4 - upper jaw extends right -->
  <rect x="10" y="4" width="7" height="1" fill="#3A7D2E"/>
  <!-- row 5 - mouth open (white = open mouth) -->
  <rect x="10" y="5" width="5" height="1" fill="#3A7D2E"/>
  <rect x="15" y="5" width="2" height="1" fill="#FFFFFF"/>
  <!-- row 6 - lower jaw + neck -->
  <rect x="9"  y="6" width="6" height="1" fill="#3A7D2E"/>
  <!-- row 7 - neck -->
  <rect x="8"  y="7" width="4" height="1" fill="#3A7D2E"/>

  <!-- UPPER BODY + ARM -->
  <!-- row 8 -->
  <rect x="6"  y="8" width="6" height="1" fill="#3A7D2E"/>
  <rect x="12" y="8" width="3" height="1" fill="#3A7D2E"/>
  <!-- row 9 - body + arm + belly starts -->
  <rect x="5"  y="9" width="3" height="1" fill="#3A7D2E"/>
  <rect x="8"  y="9" width="3" height="1" fill="#8DC63F"/>
  <rect x="11" y="9" width="2" height="1" fill="#3A7D2E"/>
  <rect x="13" y="9" width="2" height="1" fill="#3A7D2E"/>
  <!-- row 10 -->
  <rect x="4"  y="10" width="3" height="1" fill="#3A7D2E"/>
  <rect x="7"  y="10" width="5" height="1" fill="#8DC63F"/>
  <rect x="12" y="10" width="2" height="1" fill="#3A7D2E"/>

  <!-- TAIL + BODY MID -->
  <!-- row 11 -->
  <rect x="0"  y="11" width="3" height="1" fill="#3A7D2E"/>
  <rect x="3"  y="11" width="2" height="1" fill="#3A7D2E"/>
  <rect x="5"  y="11" width="1" height="1" fill="#3A7D2E"/>
  <rect x="6"  y="11" width="5" height="1" fill="#8DC63F"/>
  <rect x="11" y="11" width="2" height="1" fill="#3A7D2E"/>
  <!-- row 12 -->
  <rect x="0"  y="12" width="2" height="1" fill="#3A7D2E"/>
  <rect x="2"  y="12" width="2" height="1" fill="#3A7D2E"/>
  <rect x="4"  y="12" width="2" height="1" fill="#3A7D2E"/>
  <rect x="6"  y="12" width="4" height="1" fill="#8DC63F"/>
  <rect x="10" y="12" width="2" height="1" fill="#3A7D2E"/>
  <!-- row 13 -->
  <rect x="0"  y="13" width="1" height="1" fill="#3A7D2E"/>
  <rect x="3"  y="13" width="2" height="1" fill="#3A7D2E"/>
  <rect x="5"  y="13" width="4" height="1" fill="#8DC63F"/>
  <rect x="9"  y="13" width="2" height="1" fill="#3A7D2E"/>

  <!-- LOWER BODY - legs split -->
  <!-- row 14 -->
  <rect x="4"  y="14" width="2" height="1" fill="#3A7D2E"/>
  <rect x="7"  y="14" width="3" height="1" fill="#3A7D2E"/>
  <!-- row 15 -->
  <rect x="4"  y="15" width="2" height="1" fill="#3A7D2E"/>
  <rect x="7"  y="15" width="3" height="1" fill="#3A7D2E"/>
  <!-- row 16 -->
  <rect x="4"  y="16" width="2" height="1" fill="#3A7D2E"/>
  <rect x="7"  y="16" width="3" height="1" fill="#3A7D2E"/>
  <!-- row 17 - ankles -->
  <rect x="3"  y="17" width="3" height="1" fill="#3A7D2E"/>
  <rect x="7"  y="17" width="3" height="1" fill="#3A7D2E"/>

  <!-- FEET / TOES -->
  <!-- row 18 -->
  <rect x="2"  y="18" width="2" height="1" fill="#3A7D2E"/>
  <rect x="5"  y="18" width="1" height="1" fill="#3A7D2E"/>
  <rect x="7"  y="18" width="1" height="1" fill="#3A7D2E"/>
  <rect x="9"  y="18" width="2" height="1" fill="#3A7D2E"/>
  <!-- row 19 - toe tips -->
  <rect x="2"  y="19" width="1" height="1" fill="#3A7D2E"/>
  <rect x="5"  y="19" width="1" height="1" fill="#3A7D2E"/>
  <rect x="7"  y="19" width="1" height="1" fill="#3A7D2E"/>
  <rect x="10" y="19" width="1" height="1" fill="#3A7D2E"/>
</svg>
